# xmcd
#
# Track frame offsets:
#	300
#	15973
#	33121
#	51843
#	70643
#	88632
#	106234
#	127498
#	145181
#	163049
#	177126
#	191521
#	208441
#	224648
#	240409
#	259411
#	276486
#	290638
#
# Disc length: 4067 seconds
#
# Revision: 4
# Processed by: cddbd v1.5.2PL0 Copyright (c) Steve Scherf et al.
# Submitted via: audiograbber 1.83.01
#
DISCID=190fdf12
DTITLE=Various Artist - Sunfly SF-315
DYEAR=2012
DGENRE=Karaoke
TTITLE0=Carly Rae Jepsen - Call Me Maybe
TTITLE1=Tulisa - Young
TTITLE2=Usher - Climax
TTITLE3=Sean Paul - She Doesn't Mind
TTITLE4=Plan B - Ill Manors (clean)
TTITLE5=Marina And The Diamonds - Primadonna
TTITLE6=Nicki Minaj - Right By My Side (Clean)
TTITLE7=Rita Ora Ft Tinie Tempa - R.I.P.
TTITLE8=Beyonce - End Of Time
TTITLE9=Cover Drive - Sparks
TTITLE10=Sway - Level Up
TTITLE11=Jessie J Ft David Guetta - Laserlight
TTITLE12=Rebecca Ferguson - Glitter and Gold
TTITLE13=Train - Drive By
TTITLE14=Jennifer Lopez Ft Pitbull - Dance Again
TTITLE15=Lana Del Rey - Blue Jeans (clean)
TTITLE16=Justin Bieber - Boyfriend
TTITLE17=Engelbert Humperdinck - Love Will Set You Free
EXTD=
EXTT0=
EXTT1=
EXTT2=
EXTT3=
EXTT4=
EXTT5=
EXTT6=
EXTT7=
EXTT8=
EXTT9=
EXTT10=
EXTT11=
EXTT12=
EXTT13=
EXTT14=
EXTT15=
EXTT16=
EXTT17=
PLAYORDER=
